<svg width="263" height="73" viewBox="0 0 263 73" fill="none" xmlns="http://www.w3.org/2000/svg">
<path d="M262.507 54.3055C262.507 64.5722 254.107 72.9722 243.84 72.9722H18.6667C8.4 72.9722 0 64.5722 0 54.3055V18.6668C0 8.40017 8.4 0.000165672 18.6667 0.000165672H243.84C254.107 0.000165672 262.507 8.40017 262.507 18.6668V54.3055Z" fill="#F6F6F6"/>
<path d="M243.84 0.00114223H193.748L164.836 72.9731H243.84C254.107 72.9731 262.507 64.5731 262.507 54.3065V18.6678C262.507 8.40114 254.107 0.00114223 243.84 0.00114223Z" fill="#404040"/>
<path d="M235.88 40.0301C234.932 40.0301 234.216 40.7367 234.216 41.6714V52.2954H207.137V41.6714C207.137 40.7514 206.406 40.0301 205.473 40.0301C204.524 40.0301 203.809 40.7367 203.809 41.6714V53.9581C203.809 54.8754 204.556 55.6221 205.473 55.6221H235.88C236.797 55.6221 237.544 54.8754 237.544 53.9581V41.6714C237.544 40.7514 236.813 40.0301 235.88 40.0301Z" fill="#F6F6F6"/>
<path d="M219.451 43.3536C219.755 43.7043 220.188 43.8989 220.645 43.8989C220.707 43.8989 220.768 43.8949 220.831 43.8883C221.251 43.8576 221.629 43.6683 221.903 43.3536L230.373 33.5803C230.993 32.8643 230.909 31.8096 230.181 31.1789C229.489 30.5803 228.517 30.6469 227.921 31.3336L222.34 37.7723V20.3256C222.34 19.4043 221.609 18.6843 220.676 18.6843C219.728 18.6843 219.013 19.3896 219.013 20.3256V37.7723L213.433 31.3336C213.051 30.8936 212.496 30.6963 211.945 30.7989C211.364 30.9109 210.859 31.3576 210.659 31.9363C210.461 32.5056 210.581 33.1203 210.98 33.5803L219.451 43.3536Z" fill="#F6F6F6"/>
<path d="M26.7012 39.4658V26.3992H32.6372C34.0559 26.3992 35.3065 26.6729 36.3892 27.2205C37.4719 27.7556 38.3181 28.5085 38.9279 29.4792C39.5376 30.4498 39.8425 31.6009 39.8425 32.9325C39.8425 34.2516 39.5376 35.4027 38.9279 36.3858C38.3181 37.3565 37.4719 38.1156 36.3892 38.6632C35.3065 39.1983 34.0559 39.4658 32.6372 39.4658H26.7012ZM29.7252 36.9832H32.4879C33.359 36.9832 34.1119 36.8214 34.7465 36.4978C35.3936 36.1618 35.8914 35.6889 36.2399 35.0792C36.6007 34.4694 36.7812 33.7538 36.7812 32.9325C36.7812 32.0987 36.6007 31.3832 36.2399 30.7858C35.8914 30.176 35.3936 29.7094 34.7465 29.3858C34.1119 29.0498 33.359 28.8818 32.4879 28.8818H29.7252V36.9832ZM48.4697 39.6898C47.4368 39.6898 46.4786 39.5218 45.5951 39.1858C44.724 38.8498 43.9648 38.3769 43.3177 37.7672C42.6831 37.1574 42.1853 36.4418 41.8244 35.6205C41.476 34.7992 41.3017 33.9032 41.3017 32.9325C41.3017 31.9618 41.476 31.0658 41.8244 30.2445C42.1853 29.4232 42.6893 28.7076 43.3364 28.0978C43.9835 27.488 44.7426 27.0152 45.6137 26.6792C46.4848 26.3432 47.4306 26.1752 48.4511 26.1752C49.484 26.1752 50.4297 26.3432 51.2884 26.6792C52.1595 27.0152 52.9124 27.488 53.5471 28.0978C54.1942 28.7076 54.6982 29.4232 55.0591 30.2445C55.42 31.0534 55.6004 31.9494 55.6004 32.9325C55.6004 33.9032 55.42 34.8054 55.0591 35.6392C54.6982 36.4605 54.1942 37.176 53.5471 37.7858C52.9124 38.3832 52.1595 38.8498 51.2884 39.1858C50.4297 39.5218 49.4902 39.6898 48.4697 39.6898ZM48.4511 37.1138C49.036 37.1138 49.5711 37.0143 50.0564 36.8152C50.5542 36.616 50.9897 36.3298 51.3631 35.9565C51.7364 35.5832 52.0226 35.1414 52.2217 34.6312C52.4333 34.1209 52.5391 33.5547 52.5391 32.9325C52.5391 32.3103 52.4333 31.744 52.2217 31.2338C52.0226 30.7236 51.7364 30.2818 51.3631 29.9085C51.0022 29.5352 50.5728 29.2489 50.0751 29.0498C49.5773 28.8507 49.036 28.7512 48.4511 28.7512C47.8662 28.7512 47.3248 28.8507 46.8271 29.0498C46.3417 29.2489 45.9124 29.5352 45.5391 29.9085C45.1657 30.2818 44.8733 30.7236 44.6617 31.2338C44.4626 31.744 44.3631 32.3103 44.3631 32.9325C44.3631 33.5423 44.4626 34.1085 44.6617 34.6312C44.8733 35.1414 45.1595 35.5832 45.5204 35.9565C45.8937 36.3298 46.3293 36.616 46.8271 36.8152C47.3248 37.0143 47.8662 37.1138 48.4511 37.1138ZM60.5898 39.4658L56.3151 26.3992H59.4511L63.1658 37.9725H61.5978L65.4805 26.3992H68.2805L72.0138 37.9725H70.5018L74.3098 26.3992H77.2031L72.9285 39.4658H69.6805L66.3765 29.3112H67.2351L63.8378 39.4658H60.5898ZM78.8913 39.4658V26.3992H81.3926L89.102 35.8072H87.8886V26.3992H90.8753V39.4658H88.3926L80.6646 30.0578H81.878V39.4658H78.8913ZM93.9668 39.4658V26.3992H96.9908V37.0018H103.543V39.4658H93.9668ZM111.36 39.6898C110.327 39.6898 109.369 39.5218 108.486 39.1858C107.615 38.8498 106.855 38.3769 106.208 37.7672C105.574 37.1574 105.076 36.4418 104.715 35.6205C104.367 34.7992 104.192 33.9032 104.192 32.9325C104.192 31.9618 104.367 31.0658 104.715 30.2445C105.076 29.4232 105.58 28.7076 106.227 28.0978C106.874 27.488 107.633 27.0152 108.504 26.6792C109.375 26.3432 110.321 26.1752 111.342 26.1752C112.375 26.1752 113.32 26.3432 114.179 26.6792C115.05 27.0152 115.803 27.488 116.438 28.0978C117.085 28.7076 117.589 29.4232 117.95 30.2445C118.311 31.0534 118.491 31.9494 118.491 32.9325C118.491 33.9032 118.311 34.8054 117.95 35.6392C117.589 36.4605 117.085 37.176 116.438 37.7858C115.803 38.3832 115.05 38.8498 114.179 39.1858C113.32 39.5218 112.381 39.6898 111.36 39.6898ZM111.342 37.1138C111.927 37.1138 112.462 37.0143 112.947 36.8152C113.445 36.616 113.88 36.3298 114.254 35.9565C114.627 35.5832 114.913 35.1414 115.112 34.6312C115.324 34.1209 115.43 33.5547 115.43 32.9325C115.43 32.3103 115.324 31.744 115.112 31.2338C114.913 30.7236 114.627 30.2818 114.254 29.9085C113.893 29.5352 113.463 29.2489 112.966 29.0498C112.468 28.8507 111.927 28.7512 111.342 28.7512C110.757 28.7512 110.215 28.8507 109.718 29.0498C109.232 29.2489 108.803 29.5352 108.43 29.9085C108.056 30.2818 107.764 30.7236 107.552 31.2338C107.353 31.744 107.254 32.3103 107.254 32.9325C107.254 33.5423 107.353 34.1085 107.552 34.6312C107.764 35.1414 108.05 35.5832 108.411 35.9565C108.784 36.3298 109.22 36.616 109.718 36.8152C110.215 37.0143 110.757 37.1138 111.342 37.1138ZM118.864 39.4658L124.688 26.3992H127.675L133.517 39.4658H130.344L125.565 27.9298H126.76L121.963 39.4658H118.864ZM121.776 36.6658L122.579 34.3698H129.299L130.12 36.6658H121.776ZM134.873 39.4658V26.3992H140.809C142.228 26.3992 143.478 26.6729 144.561 27.2205C145.644 27.7556 146.49 28.5085 147.1 29.4792C147.71 30.4498 148.014 31.6009 148.014 32.9325C148.014 34.2516 147.71 35.4027 147.1 36.3858C146.49 37.3565 145.644 38.1156 144.561 38.6632C143.478 39.1983 142.228 39.4658 140.809 39.4658H134.873ZM137.897 36.9832H140.66C141.531 36.9832 142.284 36.8214 142.918 36.4978C143.566 36.1618 144.063 35.6889 144.412 35.0792C144.773 34.4694 144.953 33.7538 144.953 32.9325C144.953 32.0987 144.773 31.3832 144.412 30.7858C144.063 30.176 143.566 29.7094 142.918 29.3858C142.284 29.0498 141.531 28.8818 140.66 28.8818H137.897V36.9832Z" fill="#404040"/>
<path d="M26.8963 50.6616V44.7757H29.4356C30.0915 44.7757 30.5988 44.9075 30.9576 45.1709C31.3219 45.4344 31.5041 45.8072 31.5041 46.2893C31.5041 46.6088 31.4284 46.8778 31.2771 47.0965C31.1313 47.3151 30.9295 47.4804 30.6717 47.5926C30.4194 47.7047 30.1419 47.7607 29.8392 47.7607L29.9822 47.5589C30.3578 47.5589 30.6801 47.6178 30.9492 47.7355C31.2238 47.8476 31.4368 48.0186 31.5882 48.2484C31.7395 48.4726 31.8152 48.7529 31.8152 49.0893C31.8152 49.5881 31.6302 49.9749 31.2603 50.2496C30.8959 50.5243 30.3437 50.6616 29.6038 50.6616H26.8963ZM27.5185 50.1487H29.5954C30.1111 50.1487 30.5063 50.0618 30.781 49.888C31.0557 49.7087 31.193 49.4256 31.193 49.0388C31.193 48.6576 31.0557 48.3801 30.781 48.2064C30.5063 48.027 30.1111 47.9373 29.5954 47.9373H27.4513V47.4244H29.3936C29.8645 47.4244 30.2288 47.3347 30.4867 47.1553C30.7502 46.9759 30.8819 46.7097 30.8819 46.3565C30.8819 45.9978 30.7502 45.7315 30.4867 45.5577C30.2288 45.3783 29.8645 45.2887 29.3936 45.2887H27.5185V50.1487ZM33.1093 50.6616V46.2472H33.7063V50.6616H33.1093ZM33.412 45.2718C33.2887 45.2718 33.185 45.2298 33.1009 45.1457C33.0168 45.0616 32.9748 44.9607 32.9748 44.843C32.9748 44.7253 33.0168 44.6272 33.1009 44.5487C33.185 44.4646 33.2887 44.4226 33.412 44.4226C33.5353 44.4226 33.6391 44.4618 33.7231 44.5403C33.8072 44.6188 33.8493 44.7169 33.8493 44.8346C33.8493 44.9579 33.8072 45.0616 33.7231 45.1457C33.6447 45.2298 33.541 45.2718 33.412 45.2718ZM37.2509 52.3349C36.8473 52.3349 36.4605 52.276 36.0906 52.1583C35.7206 52.0406 35.4207 51.8724 35.1909 51.6538L35.4936 51.1998C35.701 51.3847 35.956 51.5305 36.2587 51.637C36.567 51.7491 36.8922 51.8052 37.2341 51.8052C37.7947 51.8052 38.2067 51.6734 38.4701 51.41C38.7336 51.1521 38.8653 50.7485 38.8653 50.1992V49.0977L38.9494 48.3409L38.8906 47.5841V46.2472H39.4623V50.1235C39.4623 50.8858 39.2745 51.4436 38.899 51.7968C38.529 52.1555 37.9796 52.3349 37.2509 52.3349ZM37.1416 50.4935C36.7212 50.4935 36.3428 50.4038 36.0065 50.2244C35.6701 50.0394 35.4039 49.7843 35.2077 49.4592C35.0171 49.1341 34.9218 48.7613 34.9218 48.3409C34.9218 47.9205 35.0171 47.5505 35.2077 47.231C35.4039 46.9059 35.6701 46.6536 36.0065 46.4742C36.3428 46.2949 36.7212 46.2052 37.1416 46.2052C37.534 46.2052 37.8872 46.2865 38.2011 46.449C38.515 46.6116 38.7644 46.8526 38.9494 47.1721C39.1344 47.4917 39.2269 47.8812 39.2269 48.3409C39.2269 48.8006 39.1344 49.1902 38.9494 49.5097C38.7644 49.8292 38.515 50.073 38.2011 50.2412C37.8872 50.4094 37.534 50.4935 37.1416 50.4935ZM37.2005 49.9637C37.5256 49.9637 37.8143 49.8965 38.0665 49.7619C38.3188 49.6218 38.5178 49.4312 38.6635 49.1902C38.8093 48.9435 38.8821 48.6604 38.8821 48.3409C38.8821 48.0214 38.8093 47.7411 38.6635 47.5001C38.5178 47.259 38.3188 47.0712 38.0665 46.9367C37.8143 46.7966 37.5256 46.7265 37.2005 46.7265C36.8809 46.7265 36.5923 46.7966 36.3344 46.9367C36.0822 47.0712 35.8832 47.259 35.7374 47.5001C35.5973 47.7411 35.5272 48.0214 35.5272 48.3409C35.5272 48.6604 35.5973 48.9435 35.7374 49.1902C35.8832 49.4312 36.0822 49.6218 36.3344 49.7619C36.5923 49.8965 36.8809 49.9637 37.2005 49.9637ZM42.5456 50.6616L40.5612 44.7757H41.2002L43.0585 50.3169H42.739L44.6561 44.7757H45.2279L47.1198 50.3169H46.817L48.6921 44.7757H49.2891L47.3047 50.6616H46.6489L44.8411 45.4064H45.0092L43.193 50.6616H42.5456ZM50.2792 50.6616V46.2472H50.8762V50.6616H50.2792ZM50.5819 45.2718C50.4586 45.2718 50.3549 45.2298 50.2708 45.1457C50.1867 45.0616 50.1447 44.9607 50.1447 44.843C50.1447 44.7253 50.1867 44.6272 50.2708 44.5487C50.3549 44.4646 50.4586 44.4226 50.5819 44.4226C50.7052 44.4226 50.8089 44.4618 50.893 44.5403C50.9771 44.6188 51.0191 44.7169 51.0191 44.8346C51.0191 44.9579 50.9771 45.0616 50.893 45.1457C50.8145 45.2298 50.7108 45.2718 50.5819 45.2718ZM54.7908 46.2052C55.1495 46.2052 55.4634 46.2752 55.7325 46.4154C56.0072 46.5499 56.2202 46.7573 56.3716 47.0376C56.5285 47.3179 56.607 47.671 56.607 48.0971V50.6616H56.01V48.1559C56.01 47.6907 55.8923 47.3403 55.6568 47.1049C55.427 46.8638 55.1019 46.7433 54.6815 46.7433C54.3676 46.7433 54.0929 46.8078 53.8574 46.9367C53.6276 47.06 53.4482 47.2422 53.3193 47.4832C53.196 47.7187 53.1343 48.0046 53.1343 48.3409V50.6616H52.5373V46.2472H53.1091V47.458L53.0166 47.231C53.1567 46.9115 53.381 46.662 53.6893 46.4826C53.9976 46.2977 54.3647 46.2052 54.7908 46.2052ZM59.6046 50.6616L62.2953 44.7757H62.9091L65.5998 50.6616H64.9439L62.4718 45.1373H62.7241L60.252 50.6616H59.6046ZM60.664 49.0893L60.849 48.5847H64.2712L64.4562 49.0893H60.664ZM68.726 50.7037C68.3448 50.7037 68.0001 50.6168 67.6918 50.443C67.3834 50.2636 67.1368 50.0086 66.9518 49.6778C66.7724 49.3415 66.6827 48.9323 66.6827 48.4502C66.6827 47.9681 66.7724 47.5617 66.9518 47.231C67.1312 46.8947 67.375 46.6396 67.6833 46.4658C67.9917 46.2921 68.3392 46.2052 68.726 46.2052C69.1464 46.2052 69.522 46.3005 69.8527 46.4911C70.189 46.676 70.4525 46.9395 70.6431 47.2814C70.8337 47.6178 70.929 48.0074 70.929 48.4502C70.929 48.8987 70.8337 49.2911 70.6431 49.6274C70.4525 49.9637 70.189 50.2272 69.8527 50.4178C69.522 50.6084 69.1464 50.7037 68.726 50.7037ZM66.4473 52.2929V46.2472H67.0191V47.5757L66.9602 48.4586L67.0443 49.3499V52.2929H66.4473ZM68.6839 50.1739C68.9979 50.1739 69.2781 50.1039 69.5248 49.9637C69.7714 49.818 69.9676 49.6162 70.1134 49.3583C70.2591 49.0949 70.332 48.7922 70.332 48.4502C70.332 48.1083 70.2591 47.8084 70.1134 47.5505C69.9676 47.2927 69.7714 47.0909 69.5248 46.9451C69.2781 46.7994 68.9979 46.7265 68.6839 46.7265C68.37 46.7265 68.0869 46.7994 67.8347 46.9451C67.5881 47.0909 67.3919 47.2927 67.2461 47.5505C67.106 47.8084 67.0359 48.1083 67.0359 48.4502C67.0359 48.7922 67.106 49.0949 67.2461 49.3583C67.3919 49.6162 67.5881 49.818 67.8347 49.9637C68.0869 50.1039 68.37 50.1739 68.6839 50.1739ZM74.4246 50.7037C74.0435 50.7037 73.6987 50.6168 73.3904 50.443C73.0821 50.2636 72.8355 50.0086 72.6505 49.6778C72.4711 49.3415 72.3814 48.9323 72.3814 48.4502C72.3814 47.9681 72.4711 47.5617 72.6505 47.231C72.8299 46.8947 73.0737 46.6396 73.382 46.4658C73.6903 46.2921 74.0379 46.2052 74.4246 46.2052C74.8451 46.2052 75.2206 46.3005 75.5514 46.4911C75.8877 46.676 76.1512 46.9395 76.3418 47.2814C76.5324 47.6178 76.6277 48.0074 76.6277 48.4502C76.6277 48.8987 76.5324 49.2911 76.3418 49.6274C76.1512 49.9637 75.8877 50.2272 75.5514 50.4178C75.2206 50.6084 74.8451 50.7037 74.4246 50.7037ZM72.146 52.2929V46.2472H72.7177V47.5757L72.6589 48.4586L72.743 49.3499V52.2929H72.146ZM74.3826 50.1739C74.6965 50.1739 74.9768 50.1039 75.2234 49.9637C75.4701 49.818 75.6663 49.6162 75.812 49.3583C75.9578 49.0949 76.0307 48.7922 76.0307 48.4502C76.0307 48.1083 75.9578 47.8084 75.812 47.5505C75.6663 47.2927 75.4701 47.0909 75.2234 46.9451C74.9768 46.7994 74.6965 46.7265 74.3826 46.7265C74.0687 46.7265 73.7856 46.7994 73.5334 46.9451C73.2867 47.0909 73.0905 47.2927 72.9448 47.5505C72.8046 47.8084 72.7346 48.1083 72.7346 48.4502C72.7346 48.7922 72.8046 49.0949 72.9448 49.3583C73.0905 49.6162 73.2867 49.818 73.5334 49.9637C73.7856 50.1039 74.0687 50.1739 74.3826 50.1739ZM77.8446 50.6616V44.4226H78.4416V50.6616H77.8446ZM80.1027 50.6616V46.2472H80.6997V50.6616H80.1027ZM80.4055 45.2718C80.2821 45.2718 80.1784 45.2298 80.0943 45.1457C80.0103 45.0616 79.9682 44.9607 79.9682 44.843C79.9682 44.7253 80.0103 44.6272 80.0943 44.5487C80.1784 44.4646 80.2821 44.4226 80.4055 44.4226C80.5288 44.4226 80.6325 44.4618 80.7166 44.5403C80.8006 44.6188 80.8427 44.7169 80.8427 44.8346C80.8427 44.9579 80.8006 45.0616 80.7166 45.1457C80.6381 45.2298 80.5344 45.2718 80.4055 45.2718ZM84.1939 50.7037C83.7567 50.7037 83.3643 50.6084 83.0167 50.4178C82.6748 50.2216 82.4057 49.9553 82.2095 49.619C82.0133 49.277 81.9152 48.8874 81.9152 48.4502C81.9152 48.0074 82.0133 47.6178 82.2095 47.2814C82.4057 46.9451 82.6748 46.6816 83.0167 46.4911C83.3643 46.3005 83.7567 46.2052 84.1939 46.2052C84.5695 46.2052 84.9086 46.278 85.2113 46.4238C85.514 46.5695 85.7523 46.7882 85.926 47.0796L85.4804 47.3823C85.329 47.1581 85.1412 46.9928 84.917 46.8862C84.6928 46.7797 84.4489 46.7265 84.1855 46.7265C83.8716 46.7265 83.5885 46.7994 83.3362 46.9451C83.084 47.0852 82.885 47.2842 82.7392 47.5421C82.5935 47.8 82.5206 48.1027 82.5206 48.4502C82.5206 48.7978 82.5935 49.1005 82.7392 49.3583C82.885 49.6162 83.084 49.818 83.3362 49.9637C83.5885 50.1039 83.8716 50.1739 84.1855 50.1739C84.4489 50.1739 84.6928 50.1207 84.917 50.0142C85.1412 49.9077 85.329 49.7451 85.4804 49.5265L85.926 49.8292C85.7523 50.1151 85.514 50.3337 85.2113 50.485C84.9086 50.6308 84.5695 50.7037 84.1939 50.7037ZM89.8652 50.6616V49.6862L89.8399 49.5265V47.8953C89.8399 47.5197 89.7334 47.231 89.5204 47.0292C89.313 46.8274 89.0019 46.7265 88.5871 46.7265C88.3012 46.7265 88.0293 46.7741 87.7715 46.8694C87.5136 46.9647 87.295 47.0909 87.1156 47.2478L86.8465 46.8022C87.0708 46.6116 87.3398 46.4658 87.6538 46.3649C87.9677 46.2584 88.2984 46.2052 88.6459 46.2052C89.2177 46.2052 89.6578 46.3481 89.9661 46.634C90.28 46.9143 90.4369 47.3431 90.4369 47.9205V50.6616H89.8652ZM88.3432 50.7037C88.0125 50.7037 87.7238 50.6504 87.4772 50.5439C87.2361 50.4318 87.0512 50.2804 86.9222 50.0898C86.7933 49.8937 86.7288 49.6694 86.7288 49.4172C86.7288 49.1873 86.7821 48.9799 86.8886 48.795C87.0007 48.6044 87.1801 48.453 87.4267 48.3409C87.679 48.2232 88.0153 48.1643 88.4357 48.1643H89.9577V48.61H88.4526C88.0265 48.61 87.7294 48.6856 87.5613 48.837C87.3987 48.9883 87.3174 49.1761 87.3174 49.4004C87.3174 49.6526 87.4155 49.8544 87.6117 50.0058C87.8079 50.1571 88.0826 50.2328 88.4357 50.2328C88.7721 50.2328 89.0608 50.1571 89.3018 50.0058C89.5484 49.8488 89.7278 49.6246 89.8399 49.3331L89.9745 49.7451C89.8624 50.0366 89.6662 50.2692 89.3859 50.443C89.1112 50.6168 88.7637 50.7037 88.3432 50.7037ZM93.4542 50.7037C93.0394 50.7037 92.7199 50.5916 92.4957 50.3673C92.2715 50.1431 92.1593 49.8264 92.1593 49.4172V45.2718H92.7563V49.3835C92.7563 49.6414 92.8208 49.8404 92.9497 49.9805C93.0843 50.1207 93.2749 50.1908 93.5215 50.1908C93.785 50.1908 94.0036 50.1151 94.1774 49.9637L94.3876 50.3926C94.2699 50.4991 94.1269 50.5775 93.9587 50.628C93.7962 50.6784 93.628 50.7037 93.4542 50.7037ZM91.369 46.7433V46.2472H94.1017V46.7433H91.369ZM95.4744 50.6616V46.2472H96.0713V50.6616H95.4744ZM95.7771 45.2718C95.6537 45.2718 95.55 45.2298 95.4659 45.1457C95.3819 45.0616 95.3398 44.9607 95.3398 44.843C95.3398 44.7253 95.3819 44.6272 95.4659 44.5487C95.55 44.4646 95.6537 44.4226 95.7771 44.4226C95.9004 44.4226 96.0041 44.4618 96.0882 44.5403C96.1723 44.6188 96.2143 44.7169 96.2143 44.8346C96.2143 44.9579 96.1723 45.0616 96.0882 45.1457C96.0097 45.2298 95.906 45.2718 95.7771 45.2718ZM99.5319 50.7037C99.1058 50.7037 98.7219 50.6084 98.3799 50.4178C98.0436 50.2216 97.7773 49.9553 97.5811 49.619C97.3849 49.277 97.2868 48.8874 97.2868 48.4502C97.2868 48.0074 97.3849 47.6178 97.5811 47.2814C97.7773 46.9451 98.0436 46.6816 98.3799 46.4911C98.7163 46.3005 99.1002 46.2052 99.5319 46.2052C99.9691 46.2052 100.356 46.3005 100.692 46.4911C101.034 46.6816 101.3 46.9451 101.491 47.2814C101.687 47.6178 101.785 48.0074 101.785 48.4502C101.785 48.8874 101.687 49.277 101.491 49.619C101.3 49.9553 101.034 50.2216 100.692 50.4178C100.35 50.6084 99.9635 50.7037 99.5319 50.7037ZM99.5319 50.1739C99.8514 50.1739 100.134 50.1039 100.381 49.9637C100.628 49.818 100.821 49.6162 100.961 49.3583C101.107 49.0949 101.18 48.7922 101.18 48.4502C101.18 48.1027 101.107 47.8 100.961 47.5421C100.821 47.2842 100.628 47.0852 100.381 46.9451C100.134 46.7994 99.8542 46.7265 99.5403 46.7265C99.2264 46.7265 98.9461 46.7994 98.6994 46.9451C98.4528 47.0852 98.2566 47.2842 98.1108 47.5421C97.9651 47.8 97.8922 48.1027 97.8922 48.4502C97.8922 48.7922 97.9651 49.0949 98.1108 49.3583C98.2566 49.6162 98.4528 49.818 98.6994 49.9637C98.9461 50.1039 99.2236 50.1739 99.5319 50.1739ZM105.258 46.2052C105.616 46.2052 105.93 46.2752 106.199 46.4154C106.474 46.5499 106.687 46.7573 106.838 47.0376C106.995 47.3179 107.074 47.671 107.074 48.0971V50.6616H106.477V48.1559C106.477 47.6907 106.359 47.3403 106.124 47.1049C105.894 46.8638 105.569 46.7433 105.148 46.7433C104.834 46.7433 104.56 46.8078 104.324 46.9367C104.094 47.06 103.915 47.2422 103.786 47.4832C103.663 47.7187 103.601 48.0046 103.601 48.3409V50.6616H103.004V46.2472H103.576V47.458L103.483 47.231C103.624 46.9115 103.848 46.662 104.156 46.4826C104.464 46.2977 104.832 46.2052 105.258 46.2052Z" fill="#7386A2"/>
</svg>
