<svg width="400" height="102" viewBox="0 0 400 102" fill="none" xmlns="http://www.w3.org/2000/svg">
<path d="M7.88574 18.3252H40.5078C45.1009 18.3252 49.113 18.7126 52.5439 19.4873C56.0026 20.262 58.8802 21.3688 61.1768 22.8076C63.501 24.2188 65.2441 25.9342 66.4062 27.9541C67.5684 29.9463 68.1494 32.1737 68.1494 34.6362C68.1494 37.0988 67.4577 39.423 66.0742 41.6089C64.7184 43.7671 62.7262 45.6348 60.0977 47.2119C64.4141 48.457 67.6375 50.2832 69.7681 52.6904C71.8986 55.0977 72.9639 58.0444 72.9639 61.5308C72.9639 63.9103 72.3828 66.2069 71.2207 68.4204C70.0863 70.634 68.3708 72.5985 66.0742 74.314C63.8053 76.0295 60.9554 77.4129 57.5244 78.4644C54.0934 79.4881 50.0814 80 45.4883 80H7.88574V18.3252ZM34.4482 43.3936C36.7171 43.3936 38.6263 43.186 40.1758 42.771C41.7253 42.3283 42.9565 41.7334 43.8696 40.9863C44.8104 40.2393 45.4744 39.3815 45.8618 38.4131C46.2769 37.4447 46.4844 36.4347 46.4844 35.3833C46.4844 34.3319 46.2769 33.3219 45.8618 32.3535C45.4744 31.3851 44.8104 30.5412 43.8696 29.8218C42.9565 29.0747 41.7253 28.4798 40.1758 28.0371C38.6263 27.5944 36.7171 27.373 34.4482 27.373H31.9165L31.875 43.3936H34.4482ZM34.4482 70.9521C36.9108 70.9521 38.986 70.6893 40.6738 70.1636C42.3617 69.6379 43.7313 68.9185 44.7827 68.0054C45.8341 67.0923 46.5951 66.027 47.0654 64.8096C47.5358 63.5645 47.771 62.2363 47.771 60.8252C47.771 59.5801 47.522 58.3626 47.0239 57.1729C46.5259 55.9831 45.7788 54.9316 44.7827 54.0186C43.8143 53.0778 42.6107 52.3307 41.1719 51.7773C39.7331 51.1963 38.0729 50.9058 36.1914 50.9058H31.875V70.9521H34.4482ZM93.5913 32.0215C91.5438 32.0215 89.7729 31.8001 88.2788 31.3574C86.8123 30.9147 85.6087 30.306 84.668 29.5312C83.7272 28.7288 83.0355 27.8158 82.5928 26.792C82.1501 25.7406 81.9287 24.6061 81.9287 23.3887C81.9287 22.1989 82.1501 21.0783 82.5928 20.0269C83.0355 18.9754 83.7272 18.0623 84.668 17.2876C85.6087 16.4852 86.8123 15.8626 88.2788 15.4199C89.7729 14.9772 91.5438 14.7559 93.5913 14.7559C95.6665 14.7559 97.4373 14.9772 98.9038 15.4199C100.37 15.8626 101.574 16.4852 102.515 17.2876C103.483 18.0623 104.189 18.9754 104.631 20.0269C105.074 21.0783 105.295 22.1989 105.295 23.3887C105.295 24.6061 105.074 25.7406 104.631 26.792C104.189 27.8158 103.483 28.7288 102.515 29.5312C101.574 30.306 100.37 30.9147 98.9038 31.3574C97.4373 31.8001 95.6665 32.0215 93.5913 32.0215ZM82.3438 38.8696H104.88V80H82.3438V38.8696ZM115.796 76.3062C115.796 74.2033 116.322 72.1696 117.373 70.2051C118.424 68.2406 119.891 66.4697 121.772 64.8926C119.172 63.4814 117.193 61.7936 115.837 59.8291C114.509 57.8369 113.845 55.5957 113.845 53.1055C113.845 50.7536 114.454 48.6507 115.671 46.7969C116.917 44.9154 118.701 43.3382 121.025 42.0654C123.35 40.765 126.2 39.7827 129.575 39.1187C132.951 38.4269 136.783 38.0811 141.072 38.0811C142.538 38.0811 143.963 38.1226 145.347 38.2056V32.8516C145.347 30.9424 145.596 29.1854 146.094 27.5806C146.619 25.9757 147.394 24.5923 148.418 23.4302C149.442 22.2681 150.728 21.3688 152.278 20.7324C153.855 20.0684 155.695 19.7363 157.798 19.7363C159.735 19.7363 161.464 20.013 162.986 20.5664C164.535 21.0921 165.836 21.8254 166.887 22.7661C167.966 23.6792 168.783 24.7583 169.336 26.0034C169.889 27.2485 170.166 28.5628 170.166 29.9463C170.166 31.3021 169.917 32.5334 169.419 33.6401C168.949 34.7469 168.326 35.7015 167.551 36.5039C166.777 37.3063 165.919 37.9289 164.978 38.3716C164.065 38.8143 163.152 39.0356 162.239 39.0356L152.527 25.9619L152.485 26.0034L152.402 39.0771C157.521 40.0732 161.45 41.7749 164.189 44.1821C166.929 46.5617 168.298 49.5361 168.298 53.1055C168.298 55.4574 167.676 57.6017 166.431 59.5386C165.213 61.4478 163.442 63.0941 161.118 64.4775C158.794 65.8333 155.944 66.8848 152.568 67.6318C149.193 68.3789 145.361 68.7524 141.072 68.7524C138.056 68.7524 135.261 68.5726 132.688 68.2129C130.142 67.8532 127.832 67.3136 125.757 66.5942C125.535 67.12 125.425 67.7287 125.425 68.4204C125.425 69.1398 125.605 69.79 125.964 70.3711C126.352 70.9245 127.099 71.3949 128.206 71.7822C129.34 72.1696 130.917 72.4601 132.937 72.6538C134.985 72.8475 137.655 72.9443 140.947 72.9443H151.738C155.003 72.9443 157.798 73.2764 160.122 73.9404C162.474 74.5768 164.397 75.4622 165.891 76.5967C167.413 77.7311 168.52 79.0454 169.211 80.5396C169.931 82.0614 170.291 83.6662 170.291 85.354C170.291 87.5675 169.709 89.6012 168.547 91.4551C167.385 93.3089 165.614 94.8999 163.235 96.228C160.883 97.5838 157.909 98.6353 154.312 99.3823C150.715 100.129 146.481 100.503 141.611 100.503C138.844 100.503 136.16 100.378 133.56 100.129C130.986 99.908 128.565 99.576 126.296 99.1333C124.028 98.7183 121.938 98.2064 120.029 97.5977C118.12 97.0166 116.446 96.3802 115.007 95.6885L118.369 89.4214C120.112 90.2238 121.855 90.8879 123.599 91.4136C125.342 91.967 127.113 92.4097 128.911 92.7417C130.71 93.0737 132.55 93.3089 134.431 93.4473C136.34 93.5856 138.319 93.6548 140.366 93.6548C142.69 93.6548 144.558 93.5579 145.969 93.3643C147.408 93.1706 148.501 92.9215 149.248 92.6172C150.023 92.3128 150.535 91.9531 150.784 91.5381C151.06 91.1507 151.199 90.7495 151.199 90.3345C151.199 89.6151 150.798 89.0202 149.995 88.5498C149.22 88.1071 147.975 87.8719 146.26 87.8442L133.269 87.7197C130.308 87.6921 127.735 87.3877 125.549 86.8066C123.363 86.2533 121.537 85.4647 120.071 84.4409C118.632 83.4448 117.553 82.255 116.833 80.8716C116.142 79.4881 115.796 77.9663 115.796 76.3062ZM141.072 61.1987C141.708 61.1987 142.275 61.0742 142.773 60.8252C143.271 60.5762 143.687 60.1473 144.019 59.5386C144.378 58.9299 144.641 58.1136 144.807 57.0898C145.001 56.0384 145.098 54.7241 145.098 53.147C145.098 51.6805 145.015 50.4631 144.849 49.4946C144.683 48.5262 144.434 47.7653 144.102 47.2119C143.77 46.6309 143.341 46.2297 142.815 46.0083C142.317 45.7869 141.736 45.6763 141.072 45.6763C140.408 45.6763 139.813 45.7869 139.287 46.0083C138.789 46.2297 138.374 46.6309 138.042 47.2119C137.71 47.7653 137.461 48.5262 137.295 49.4946C137.129 50.4631 137.046 51.6943 137.046 53.1885C137.046 54.738 137.129 56.0384 137.295 57.0898C137.489 58.1136 137.751 58.9299 138.083 59.5386C138.443 60.1473 138.872 60.5762 139.37 60.8252C139.868 61.0742 140.435 61.1987 141.072 61.1987ZM199.924 18.3252H226.196L236.738 57.9614L243.503 34.5947L238.481 18.3252H264.753L274.465 57.9614L284.675 18.3252L295.508 18.2837L277.039 80L257.49 79.9585L248.359 50.3662L239.312 80L219.763 79.9585L199.924 18.3252ZM313.147 32.0215C311.099 32.0215 309.329 31.8001 307.834 31.3574C306.368 30.9147 305.164 30.306 304.224 29.5312C303.283 28.7288 302.591 27.8158 302.148 26.792C301.706 25.7406 301.484 24.6061 301.484 23.3887C301.484 22.1989 301.706 21.0783 302.148 20.0269C302.591 18.9754 303.283 18.0623 304.224 17.2876C305.164 16.4852 306.368 15.8626 307.834 15.4199C309.329 14.9772 311.099 14.7559 313.147 14.7559C315.222 14.7559 316.993 14.9772 318.459 15.4199C319.926 15.8626 321.13 16.4852 322.07 17.2876C323.039 18.0623 323.744 18.9754 324.187 20.0269C324.63 21.0783 324.851 22.1989 324.851 23.3887C324.851 24.6061 324.63 25.7406 324.187 26.792C323.744 27.8158 323.039 28.7288 322.07 29.5312C321.13 30.306 319.926 30.9147 318.459 31.3574C316.993 31.8001 315.222 32.0215 313.147 32.0215ZM301.899 38.8696H324.436V80H301.899V38.8696ZM336.099 38.8696H355.979L357.971 44.8462C360.904 42.605 363.879 40.9172 366.895 39.7827C369.938 38.6483 373.134 38.0811 376.482 38.0811C378.391 38.0811 380.162 38.3993 381.794 39.0356C383.455 39.672 384.893 40.6543 386.111 41.9824C387.328 43.3105 388.283 45.026 388.975 47.1289C389.666 49.2041 390.012 51.6943 390.012 54.5996V80H367.476V53.1885C367.476 51.7497 367.157 50.6982 366.521 50.0342C365.885 49.3701 364.958 49.0381 363.74 49.0381C362.938 49.0381 362.052 49.2041 361.084 49.5361C360.116 49.8682 359.299 50.3939 358.635 51.1133V80H336.099V38.8696Z" fill="black"/>
<path d="M105.34 23.3298C105.34 28.7294 101.171 32.5533 93.8464 32.5533C86.5218 32.5533 81.4681 28.7294 81.4681 23.3298C81.4681 17.9303 86.5218 14.1064 93.8464 14.1064C101.171 14.1064 105.34 17.9303 105.34 23.3298Z" fill="#5ECA04"/>
<path d="M322.819 22.7872C322.819 25.9635 320.261 28.2128 315.766 28.2128C311.271 28.2128 308.17 25.9635 308.17 22.7872C308.17 19.611 311.271 17.3617 315.766 17.3617C320.261 17.3617 322.819 19.611 322.819 22.7872Z" fill="#FF2222"/>
<path d="M325.702 23.8724C325.702 29.5896 321.533 33.6384 314.208 33.6384C306.883 33.6384 301.83 29.5896 301.83 23.8724C301.83 18.1552 306.883 14.1064 314.208 14.1064C321.533 14.1064 325.702 18.1552 325.702 23.8724Z" fill="#FF2222"/>
</svg>
